<svg width="21" height="21" viewBox="0 0 21 21" fill="none" xmlns="http://www.w3.org/2000/svg">
<path d="M18.6373 6.6325H13.7548C13.4136 6.6325 13.1423 6.36125 13.1423 6.02C13.1423 5.67875 13.4136 5.4075 13.7548 5.4075H18.6373C18.9786 5.4075 19.2498 5.67875 19.2498 6.02C19.2498 6.36125 18.9786 6.6325 18.6373 6.6325Z" fill="#FEA735"/>
<path d="M5.6175 6.6325H2.3625C2.02125 6.6325 1.75 6.36125 1.75 6.02C1.75 5.67875 2.02125 5.4075 2.3625 5.4075H5.6175C5.95875 5.4075 6.23 5.67875 6.23 6.02C6.23 6.36125 5.95 6.6325 5.6175 6.6325Z" fill="#FEA735"/>
<path d="M8.87251 9.47625C10.7813 9.47625 12.3288 7.92884 12.3288 6.02C12.3288 4.11117 10.7813 2.56375 8.87251 2.56375C6.96368 2.56375 5.41626 4.11117 5.41626 6.02C5.41626 7.92884 6.96368 9.47625 8.87251 9.47625Z" fill="#FEA735"/>
<path d="M18.6375 15.5838H15.3825C15.0413 15.5838 14.77 15.3125 14.77 14.9713C14.77 14.63 15.0413 14.3588 15.3825 14.3588H18.6375C18.9788 14.3588 19.25 14.63 19.25 14.9713C19.25 15.3125 18.9788 15.5838 18.6375 15.5838Z" fill="#FEA735"/>
<path d="M7.245 15.5838H2.3625C2.02125 15.5838 1.75 15.3125 1.75 14.9713C1.75 14.63 2.02125 14.3588 2.3625 14.3588H7.245C7.58625 14.3588 7.8575 14.63 7.8575 14.9713C7.8575 15.3125 7.5775 15.5838 7.245 15.5838Z" fill="#FEA735"/>
<path d="M12.1274 18.4363C14.0362 18.4363 15.5836 16.8889 15.5836 14.98C15.5836 13.0712 14.0362 11.5238 12.1274 11.5238C10.2186 11.5238 8.67114 13.0712 8.67114 14.98C8.67114 16.8889 10.2186 18.4363 12.1274 18.4363Z" fill="#FEA735"/>
</svg>
