<svg width="16" height="15" viewBox="0 0 16 15" fill="none" xmlns="http://www.w3.org/2000/svg">
<g clip-path="url(#clip0_99_1242)">
<path d="M15.4545 14.5L11.3333 10.5M7.21209 12.5C6.40028 12.5 5.59642 12.3448 4.84641 12.0433C4.0964 11.7417 3.41492 11.2998 2.84089 10.7426C2.26685 10.1855 1.8115 9.52405 1.50084 8.7961C1.19017 8.06815 1.03027 7.28793 1.03027 6.5C1.03027 5.71207 1.19017 4.93185 1.50084 4.2039C1.8115 3.47595 2.26685 2.81451 2.84089 2.25736C3.41492 1.70021 4.0964 1.25825 4.84641 0.956723C5.59642 0.655195 6.40028 0.5 7.21209 0.5C8.85161 0.5 10.424 1.13214 11.5833 2.25736C12.7426 3.38258 13.3939 4.9087 13.3939 6.5C13.3939 8.0913 12.7426 9.61742 11.5833 10.7426C10.424 11.8679 8.85161 12.5 7.21209 12.5Z" stroke="#FE901E"/>
</g>
<defs>
<clipPath id="clip0_99_1242">
<rect width="15.4545" height="15" fill="white" transform="translate(0.515137)"/>
</clipPath>
</defs>
</svg>
