<svg width="32" height="32" viewBox="0 0 32 32" fill="none" xmlns="http://www.w3.org/2000/svg">
<rect width="32" height="32" rx="16" fill="#118319"/>
<path d="M16 18C18.206 18 20 16.206 20 14C20 11.794 18.206 10 16 10C13.794 10 12 11.794 12 14C12 16.206 13.794 18 16 18ZM16 12C17.103 12 18 12.897 18 14C18 15.103 17.103 16 16 16C14.897 16 14 15.103 14 14C14 12.897 14.897 12 16 12Z" fill="white"/>
<path d="M15.4201 25.814C15.5893 25.9349 15.7921 25.9998 16.0001 25.9998C16.2081 25.9998 16.4108 25.9349 16.5801 25.814C16.8841 25.599 24.0291 20.44 24.0001 14C24.0001 9.589 20.4111 6 16.0001 6C11.5891 6 8.00009 9.589 8.00009 13.995C7.97109 20.44 15.1161 25.599 15.4201 25.814ZM16.0001 8C19.3091 8 22.0001 10.691 22.0001 14.005C22.0211 18.443 17.6121 22.428 16.0001 23.735C14.3891 22.427 9.97909 18.441 10.0001 14C10.0001 10.691 12.6911 8 16.0001 8Z" fill="white"/>
</svg>
